<svg id="LIVE_TV_DEFAULT" data-name="LIVE TV DEFAULT" xmlns="http://www.w3.org/2000/svg" width="27.867" height="22" viewBox="0 0 27.867 22"><path id="Path_45" data-name="Path 45" d="M1.177,1.176H26.692V16.662H1.177ZM0,17.838H27.867V0H0Z" fill="#333"></path><path id="Path_3426" data-name="Path 3426" d="M24.438,14.62h0ZM0,15.652H25.514V0H0Z" transform="translate(1.158 1.076)" fill="#d71920"></path><rect id="Rectangle_14" data-name="Rectangle 14" width="1.176" height="4.162" transform="translate(13.346 17.25)" fill="#333"></rect><rect id="Rectangle_15" data-name="Rectangle 15" width="13.822" height="1.177" transform="translate(7.022 20.823)" fill="#333"></rect><g id="Group_3556" data-name="Group 3556" transform="translate(6.061 5.902)"><path id="Path_46" data-name="Path 46" d="M8.034,11.546H10.58v.882H6.888V6.708H8.034Z" transform="translate(-6.888 -6.707)" fill="#fff"></path><rect id="Rectangle_16" data-name="Rectangle 16" width="1.147" height="5.721" transform="translate(4.421)" fill="#fff"></rect><path id="Path_47" data-name="Path 47" d="M16.389,10.912l.07.312h.024l.064-.3,1.247-4.209h1.211l-1.946,5.72H15.883l-1.94-5.72h1.211Z" transform="translate(-7.734 -6.708)" fill="#fff"></path><path id="Path_48" data-name="Path 48" d="M23.846,9.918H21.477v1.629h2.768v.882H20.33V6.707h3.91v.882H21.477V9.03h2.369Z" transform="translate(-8.501 -6.707)" fill="#fff"></path></g></svg>