<svg xmlns="http://www.w3.org/2000/svg" width="17.246" height="26.574" viewBox="0 0 17.246 26.574"> <g data-name="AQI Icon" transform="translate(-152 -41)"> <g transform="translate(143.9 40.8)"> <g id="noun-wind-707030" transform="translate(8.1 0.2)" style="mix-blend-mode: normal;isolation: isolate"> <path id="Path_19568" data-name="Path 19568" d="M25.565,24.72h-5.73a.834.834,0,0,1,0-1.669h5.73a1.923,1.923,0,0,0,1.919-1.919,1.365,1.365,0,0,0-1.363-1.363.926.926,0,0,0-.918.918.834.834,0,1,1-1.669,0A2.6,2.6,0,0,1,26.121,18.1a3.039,3.039,0,0,1,3.032,3.032A3.6,3.6,0,0,1,25.565,24.72Z" transform="translate(-19 -18.1)" fill="#fff"></path>= <path id="Path_19569" data-name="Path 19569" d="M29.1,64.72a2.6,2.6,0,0,1-2.587-2.587.834.834,0,1,1,1.669,0,.926.926,0,0,0,.918.918,1.365,1.365,0,0,0,1.363-1.363,1.923,1.923,0,0,0-1.919-1.919H19.834a.834.834,0,0,1,0-1.669h8.706a3.6,3.6,0,0,1,3.588,3.588A3.039,3.039,0,0,1,29.1,64.72Z" transform="translate(-19 -46.973)" fill="#fff"></path> <path id="Path_19570" data-name="Path 19570" d="M32.686,35.72H19.834a.834.834,0,1,1,0-1.669H32.686A1.923,1.923,0,0,0,34.6,32.132a1.365,1.365,0,0,0-1.363-1.363.926.926,0,0,0-.918.918.834.834,0,0,1-1.669,0A2.6,2.6,0,0,1,33.242,29.1a3.033,3.033,0,0,1,3,3.032A3.591,3.591,0,0,1,32.686,35.72Z" transform="translate(-19 -26.04)" fill="#fff"></path> </g> </g> <path id="Path_67494" data-name="Path 67494" d="M-1.365,0H-2.623l-.5-1.3H-5.412L-5.885,0H-7.111l2.23-5.727h1.223ZM-3.494-2.266l-.789-2.125-.773,2.125ZM3.857-.727a3.778,3.778,0,0,0,.926.484L4.357.574A2.637,2.637,0,0,1,3.846.359q-.055-.027-.77-.508A3.076,3.076,0,0,1,1.83.1,2.735,2.735,0,0,1-.238-.68,3.021,3.021,0,0,1-.986-2.863a3.017,3.017,0,0,1,.75-2.182A2.692,2.692,0,0,1,1.8-5.824a2.664,2.664,0,0,1,2.02.779,3.027,3.027,0,0,1,.746,2.182,3.769,3.769,0,0,1-.207,1.3A2.713,2.713,0,0,1,3.857-.727Zm-.93-.652a1.729,1.729,0,0,0,.334-.633,2.967,2.967,0,0,0,.111-.852,2.17,2.17,0,0,0-.437-1.482,1.461,1.461,0,0,0-1.145-.49,1.464,1.464,0,0,0-1.146.492,2.165,2.165,0,0,0-.439,1.48,2.215,2.215,0,0,0,.439,1.5,1.418,1.418,0,0,0,1.111.5,1.356,1.356,0,0,0,.473-.082A3.344,3.344,0,0,0,1.514-1.3l.324-.66A3.927,3.927,0,0,1,2.928-1.379ZM5.436,0V-5.727H6.592V0Z" transform="translate(160 67)" fill="#fff"></path> </g> </svg>