<svg xmlns="http://www.w3.org/2000/svg" width="23.389" height="23.5" viewBox="0 0 23.389 23.5"><g id="video_DEFAULT" data-name="video DEFAULT" transform="translate(-0.9 0.127)"><g id="Group_22111" data-name="Group 22111" transform="translate(1.65 0.623)"><path id="Path_14" data-name="Path 14" d="M8.049,23.639A1.659,1.659,0,1,1,6.391,21.98a1.659,1.659,0,0,1,1.659,1.659" transform="translate(-1.228 -3.298)" fill="none" stroke="#333" stroke-width="1.5"></path><path id="Path_15" data-name="Path 15" d="M23.329,24.063H9.013" transform="translate(-1.741 -3.548)" fill="none" stroke="#333" stroke-linecap="round" stroke-width="1.5"></path><path id="Path_16" data-name="Path 16" d="M4.033,24.063H.75" transform="translate(-0.75 -3.548)" fill="none" stroke="#333" stroke-linecap="round" stroke-width="1.5"></path><path id="Path_17" data-name="Path 17" d="M15.2,10l-3.773,2.178a.737.737,0,0,1-.368.1.664.664,0,0,1-.66-.7V7.23a.664.664,0,0,1,.66-.7.739.739,0,0,1,.368.1L15.2,8.814A.669.669,0,0,1,15.2,10Z" transform="translate(-1.907 -1.444)" fill="none" stroke="#333" stroke-width="1.5"></path><path id="Path_18" data-name="Path 18" d="M20.167.75H3.542A2.4,2.4,0,0,0,1.037,3.026V14.4a2.4,2.4,0,0,0,2.505,2.276H20.167A2.4,2.4,0,0,0,22.674,14.4V3.026A2.4,2.4,0,0,0,20.167.75Z" transform="translate(-0.784 -0.75)" fill="none" stroke="#333" stroke-width="1.5"></path></g></g></svg>