<svg xmlns="http://www.w3.org/2000/svg" xmlns:xlink="http://www.w3.org/1999/xlink" width="27.324" height="21.72" viewBox="0 0 27.324 21.72"> <defs> <clipPath id="clip-path2"> <rect id="Rectangle_4" data-name="Rectangle 4" width="27.324" height="21.72" fill="none"></rect> </clipPath> </defs> <g id="Group_4" data-name="Group 4" transform="translate(0 0)"> <g id="Group_3" data-name="Group 3" transform="translate(0 0)" clip-path="url(#clip-path2)"> <path id="Path_6" data-name="Path 6" d="M26.745,0H.567A.554.554,0,0,0,0,.567V16.7a.554.554,0,0,0,.567.567H13.048v3.323h-6a.567.567,0,1,0,0,1.135H20.342a.567.567,0,0,0,0-1.135H14.264V17.263H26.745c.324,0,.648-.243.567-.567V.567A.554.554,0,0,0,26.745,0M7.051,20.666a.477.477,0,0,0-.308.133.4.4,0,0,1,.308-.133m13.465.034a.524.524,0,0,0-.173-.034.456.456,0,0,1,.173.034" transform="translate(0 0)" fill="#fff"></path> <rect id="Rectangle_3" data-name="Rectangle 3" width="24.962" height="14.912" transform="translate(1.182 1.083)" fill="#d71920"></rect> <path id="Path_7" data-name="Path 7" d="M5.571,13.322a.226.226,0,0,1-.226-.226V6.941a.226.226,0,0,1,.226-.227H6.45a.22.22,0,0,1,.16.066.216.216,0,0,1,.066.16V12.2H9.668a.227.227,0,0,1,.169.066.231.231,0,0,1,.066.17V13.1a.218.218,0,0,1-.066.16.23.23,0,0,1-.169.066Z" transform="translate(-1.013 -1.273)" fill="#fff"></path> <path id="Path_8" data-name="Path 8" d="M12.326,13.322A.226.226,0,0,1,12.1,13.1V6.941a.226.226,0,0,1,.226-.227h.887a.218.218,0,0,1,.166.066.228.228,0,0,1,.061.16V13.1a.227.227,0,0,1-.061.16.218.218,0,0,1-.166.066Z" transform="translate(-2.294 -1.273)" fill="#fff"></path> <path id="Path_9" data-name="Path 9" d="M17.4,13.322a.343.343,0,0,1-.236-.075.427.427,0,0,1-.122-.189L15.019,7A.225.225,0,0,1,15,6.913a.193.193,0,0,1,.056-.142.2.2,0,0,1,.143-.057h.83a.276.276,0,0,1,.2.071.322.322,0,0,1,.089.137l1.6,4.861,1.595-4.861a.33.33,0,0,1,.089-.137.277.277,0,0,1,.2-.071h.831a.2.2,0,0,1,.137.057.186.186,0,0,1,.062.142A.228.228,0,0,1,20.814,7l-2.02,6.06a.427.427,0,0,1-.122.189.346.346,0,0,1-.237.075Z" transform="translate(-2.843 -1.273)" fill="#fff"></path> <path id="Path_10" data-name="Path 10" d="M23.658,13.322a.226.226,0,0,1-.226-.226V6.951a.23.23,0,0,1,.066-.17.219.219,0,0,1,.16-.066h4.154a.227.227,0,0,1,.236.237v.622a.219.219,0,0,1-.066.16.227.227,0,0,1-.169.066H24.706V9.47h2.9a.24.24,0,0,1,.169.062.215.215,0,0,1,.066.165v.584a.218.218,0,0,1-.066.166.243.243,0,0,1-.169.061h-2.9v1.728h3.181a.233.233,0,0,1,.17.066.23.23,0,0,1,.066.17V13.1a.218.218,0,0,1-.066.16.233.233,0,0,1-.17.066Z" transform="translate(-4.442 -1.273)" fill="#fff"></path> </g> </g> </svg>