<svg data-name="Layer 1" xmlns="http://www.w3.org/2000/svg" viewBox="0 0 23.58 22"><path d="M10.58,14.33a1.12,1.12,0,0,0,.67-.18l3.5-2a1.11,1.11,0,0,0,.67-1A1.13,1.13,0,0,0,14.75,10l-3.5-2a1.07,1.07,0,0,0-.67-.19A1.17,1.17,0,0,0,9.42,9v4.08A1.17,1.17,0,0,0,10.58,14.33Zm0-5.33c0-.05,0-.08,0-.08L14.25,11v0l-3.63,2.11,0,0a.19.19,0,0,1,0-.1Z"></path><path d="M23.5,7.55v-6A1.37,1.37,0,0,0,22,0H4.25V.08H1.5A1.41,1.41,0,0,0,0,1.58V20.5A1.37,1.37,0,0,0,1.5,22H22.17a1.33,1.33,0,0,0,1.41-1.42v-13ZM22,1.17c.3,0,.33,0,.33.33V6.42H19.17V1.17ZM1.17,1.58c0-.26.07-.33.33-.33H4.25V6.5H1.17V1.58Zm0,6.09H4.25v5.91H1.17ZM1.5,20.83c-.3,0-.33,0-.33-.33V14.75H4.25v6.08Zm16.5,0H5.42V1.17H18Zm4.42-.25c0,.22,0,.25-.25.25h-3V14.75h3.25v5.83Zm-3.25-7v-6h3.25v6Z"></path></svg>